<svg xmlns="http://www.w3.org/2000/svg" version="1.1" xmlns:xlink="http://www.w3.org/1999/xlink" xmlns:svgjs="http://svgjs.dev/svgjs" width="1000" height="1000" viewBox="0 0 1000 1000"><rect width="1000" height="1000" fill="#0f0b18"></rect><g transform="matrix(0.7,0,0,0.7,150,150)"><svg viewBox="0 0 280 280" data-background-color="#0f0b18" preserveAspectRatio="xMidYMid meet" height="1000" width="1000" xmlns="http://www.w3.org/2000/svg" xmlns:xlink="http://www.w3.org/1999/xlink"><g id="tight-bounds" transform="matrix(1,0,0,1,0,0)"><svg viewBox="0 0 280 280" height="280" width="280"><g><svg viewBox="0 0 280 280" height="280" width="280"><g><svg viewBox="0 0 280 280" height="280" width="280"><g id="textblocktransform"><svg viewBox="0 0 280 280" height="280" width="280" id="textblock"><g><svg viewBox="0 0 280 280" height="280" width="280"><g transform="matrix(1,0,0,1,57.50420886156945,57.50420886156945)"><svg viewBox="0 0 164.9915822768611 164.9915822768611" height="164.9915822768611" width="164.9915822768611"><g><circle r="82" cx="82.49579113843055" cy="82.49579113843055" fill="#5d3db5" data-fill-palette-color="accent"></circle><svg xmlns="http://www.w3.org/2000/svg" xmlns:xlink="http://www.w3.org/1999/xlink" version="1.1" x="24.74873734152917" y="24.748737341529164" viewBox="7.552000045776367 18.47899627685547 87.46800231933594 64.28099822998047" enable-background="new 0 0 100 100" xml:space="preserve" height="115.49410759380275" width="115.49410759380275" class="icon-o-0" data-fill-palette-color="quaternary" id="o-0"><path d="M31.805 41.953c0-5.497 2.443-10.57 6.546-14.639-0.238-0.004-0.474-0.013-0.712-0.013-16.615 0-30.087 9.948-30.087 22.221 0 9.36 7.837 17.36 18.926 20.634l-0.585 12.604 8.693-11.016c0 0 1.642 0 3.053 0 7.925 0 15.129-2.267 20.502-5.965C43.185 63.725 31.805 53.826 31.805 41.953z" fill="#35185a" data-fill-palette-color="quaternary"></path><g fill="#35185a" data-fill-palette-color="quaternary"><path d="M76.966 82.062l-11.95-15.139h-2.081c-17.693 0-32.089-10.865-32.089-24.223 0-13.355 14.396-24.221 32.089-24.221 17.691 0 32.085 10.866 32.085 24.221 0 9.637-7.348 18.172-18.857 22.078L76.966 82.062zM62.935 22.48c-15.487 0-28.089 9.071-28.089 20.221 0 11.15 12.602 20.223 28.089 20.223h4.021l5.437 6.889-0.369-7.949 1.504-0.443C84.153 58.281 91.02 50.934 91.02 42.701 91.02 31.551 78.421 22.48 62.935 22.48z" fill="#35185a" data-fill-palette-color="quaternary"></path></g></svg></g></svg></g><g><path d="M5.417 171.748L4.875 169.963 16.566 166.413 17.108 168.198ZM6.14 174.128L5.598 172.343 17.289 168.793 17.831 170.578ZM6.501 175.318L6.321 174.723 18.011 171.173 18.192 171.768ZM7.404 178.293L7.224 177.698 18.915 174.148 19.095 174.743ZM7.763 179.473L7.585 178.888 19.276 175.338 19.454 175.923ZM0.083 177.223V177.223C-0.021 176.88-0.027 176.549 0.064 176.233V176.233C0.152 175.903 0.343 175.607 0.639 175.343V175.343C0.948 175.076 1.367 174.863 1.895 174.702V174.702C2.451 174.533 2.933 174.481 3.342 174.544V174.544C3.738 174.612 4.055 174.754 4.294 174.97V174.97C4.52 175.19 4.679 175.452 4.772 175.756V175.756C4.872 176.087 4.879 176.395 4.792 176.681V176.681C4.706 176.968 4.542 177.212 4.301 177.416V177.416L3.95 177.046 3.912 176.992 3.946 176.96 4.005 176.942C4.058 176.926 4.121 176.871 4.193 176.777V176.777C4.307 176.627 4.376 176.476 4.402 176.323V176.323C4.428 176.171 4.419 176.022 4.375 175.877V175.877C4.254 175.48 3.988 175.222 3.576 175.101V175.101C3.181 174.99 2.68 175.027 2.072 175.212V175.212C1.702 175.324 1.38 175.479 1.108 175.677V175.677C0.854 175.885 0.675 176.105 0.573 176.338V176.338C0.474 176.585 0.461 176.827 0.533 177.065V177.065C0.59 177.25 0.688 177.408 0.829 177.538V177.538C0.987 177.678 1.168 177.775 1.372 177.828V177.828L1.228 178.284C0.929 178.201 0.69 178.079 0.511 177.917V177.917C0.314 177.745 0.172 177.514 0.083 177.223ZM40.903 232.693L39.56 231.399 48.036 222.599 49.379 223.893ZM41.799 233.556L41.351 233.125 49.827 224.325 50.275 224.756ZM42.695 234.419L42.247 233.988 50.723 225.187 51.171 225.619ZM45.83 237.438L44.486 236.144 52.962 227.344 54.305 228.638ZM46.718 238.294L46.277 237.87 54.753 229.07 55.194 229.494ZM37.675 238.764L41.011 235.301 41.459 235.732 41.416 235.777C41.377 235.777 41.338 235.788 41.299 235.808V235.808C41.28 235.828 41.237 235.873 41.17 235.943V235.943L39.991 237.167 41.334 238.461 42.757 236.983 43.22 237.429 43.177 237.473C43.138 237.474 43.099 237.485 43.06 237.505V237.505C43.041 237.525 42.998 237.57 42.931 237.639V237.639L39.84 240.849 39.422 240.446 41.003 238.804 39.66 237.51 38.078 239.152ZM101.608 268.592L99.804 268.118 102.911 256.302 104.715 256.776ZM102.811 268.909L102.21 268.75 105.316 256.934 105.918 257.092ZM104.014 269.225L103.412 269.067 106.519 257.25 107.12 257.408ZM107.021 270.015L106.419 269.857 109.526 258.041 110.127 258.199ZM109.416 270.645L107.622 270.173 110.728 258.357 112.522 258.828ZM104.438 276.172L104.335 274.688 102.831 274.293 102.012 275.535 101.491 275.398 104.438 271.115 104.498 271.131 104.979 276.315ZM103.077 273.929L104.3 274.25 104.162 272.328ZM170.907 270.635L170.304 270.79 167.255 258.959 167.857 258.804ZM172.111 270.325L171.509 270.48 168.459 258.649 169.061 258.493ZM174.519 269.704L172.713 270.17 169.663 258.338 171.47 257.873ZM176.928 269.083L175.121 269.549 172.072 257.717 173.878 257.252ZM179.928 268.31L179.336 268.462 176.286 256.631 176.878 256.478ZM176.752 275.956L175.67 271.762 174.366 272.098 174.247 271.636 177.458 270.809 177.577 271.27 176.212 271.622 177.293 275.817ZM234.506 237.452L233.156 238.739 224.723 229.899 226.073 228.611ZM236.756 235.306L236.306 235.735 227.872 226.894 228.322 226.465ZM237.656 234.447L237.206 234.877 228.772 226.036 229.222 225.607ZM238.555 233.589L238.105 234.018 229.672 225.178 230.122 224.748ZM240.347 231.879L239.005 233.16 230.572 224.319 231.914 223.039ZM241.602 239.935V239.935C241.242 240.278 240.862 240.431 240.462 240.392V240.392C240.062 240.353 239.672 240.134 239.29 239.734V239.734L237.116 237.455 237.55 237.04 237.593 237.085C237.582 237.133 237.591 237.173 237.62 237.203V237.203C237.629 237.232 237.667 237.282 237.734 237.352V237.352L239.665 239.376C239.951 239.676 240.23 239.849 240.503 239.895V239.895C240.766 239.95 241.032 239.848 241.302 239.591V239.591C241.562 239.343 241.675 239.082 241.643 238.807V238.807C241.61 238.533 241.446 238.241 241.15 237.931V237.931L238.99 235.666 239.365 235.309 241.525 237.573C241.935 238.003 242.141 238.418 242.141 238.819V238.819C242.141 239.22 241.961 239.592 241.602 239.935ZM272.576 179.511L272.392 180.105 260.718 176.499 260.902 175.905ZM273.31 177.135L272.759 178.917 261.085 175.311 261.636 173.529ZM274.044 174.758L273.493 176.541 261.819 172.934 262.37 171.152ZM274.411 173.57L274.227 174.164 262.554 170.558 262.737 169.964ZM275.325 170.61L275.145 171.194 263.471 167.588 263.652 167.004ZM279.835 178.413L275.241 176.994 275.693 175.528C275.844 175.04 276.082 174.715 276.406 174.555V174.555C276.721 174.378 277.07 174.348 277.453 174.466V174.466C277.823 174.581 278.089 174.793 278.254 175.104V175.104C278.418 175.415 278.427 175.808 278.28 176.284V176.284L277.98 177.254 280 177.878ZM277.525 177.113L277.806 176.202C277.908 175.872 277.909 175.612 277.808 175.422V175.422C277.725 175.223 277.558 175.085 277.308 175.007V175.007C277.057 174.93 276.834 174.948 276.64 175.061V175.061C276.433 175.171 276.282 175.377 276.188 175.681V175.681L275.901 176.612Z" fill="#a53aca" data-fill-palette-color="primary"></path><path d="M28.567 101.093L27.676 103.822 9.776 97.98 10.666 95.251ZM29.756 97.448L28.866 100.177 10.965 94.335 11.856 91.606ZM30.351 95.626L30.052 96.542 12.152 90.7 12.451 89.784ZM31.837 91.074L31.538 91.99 13.637 86.149 13.936 85.232ZM32.431 89.252L32.132 90.168 14.232 84.326 14.531 83.41ZM40.134 98.884V98.884C39.961 99.416 39.677 99.839 39.284 100.154V100.154C38.882 100.495 38.378 100.702 37.774 100.773V100.773C37.149 100.838 36.43 100.738 35.615 100.472V100.472C34.768 100.196 34.115 99.837 33.655 99.397V99.397C33.216 98.962 32.941 98.502 32.831 98.016V98.016C32.74 97.535 32.77 97.066 32.92 96.606V96.606C33.085 96.1 33.349 95.703 33.712 95.414V95.414C34.073 95.133 34.497 94.969 34.984 94.925V94.925L35.09 95.701 35.091 95.799 35.022 95.809 34.934 95.78C34.855 95.755 34.726 95.771 34.547 95.829V95.829C34.273 95.913 34.053 96.042 33.888 96.213V96.213C33.723 96.384 33.604 96.582 33.531 96.805V96.805C33.334 97.409 33.442 97.968 33.856 98.481V98.481C34.255 98.974 34.917 99.372 35.843 99.674V99.674C36.414 99.861 36.957 99.947 37.47 99.933V99.933C37.977 99.895 38.398 99.774 38.733 99.571V99.571C39.074 99.348 39.304 99.056 39.422 98.695V98.695C39.516 98.406 39.534 98.118 39.476 97.83V97.83C39.397 97.513 39.252 97.233 39.041 96.99V96.99L39.625 96.537C39.926 96.905 40.12 97.269 40.205 97.632V97.632C40.302 98.026 40.278 98.444 40.134 98.884ZM57.333 51.36L55.242 53.326 42.342 39.61 44.433 37.643ZM58.729 50.046L58.035 50.699 45.135 36.983 45.829 36.33ZM60.126 48.733L59.424 49.393 46.524 35.676 47.226 35.016ZM65.01 44.139L62.919 46.106 50.019 32.389 52.11 30.423ZM66.407 42.826L65.705 43.486 52.805 29.77 53.507 29.109ZM66.433 56.785L61.357 51.388 62.051 50.735 62.115 50.802C62.113 50.861 62.129 50.923 62.161 50.987V50.987C62.189 51.017 62.253 51.085 62.353 51.191V51.191L64.149 53.101 66.24 51.134 64.075 48.832 64.792 48.157 64.856 48.225C64.854 48.284 64.869 48.345 64.901 48.41V48.41C64.93 48.44 64.994 48.508 65.093 48.614V48.614L69.8 53.619 69.151 54.229 66.744 51.67 64.653 53.637 67.06 56.196ZM106.44 21.542L103.662 22.263 98.931 4.038 101.71 3.316ZM108.296 21.061L107.373 21.3 102.642 3.074 103.565 2.835ZM110.151 20.579L109.219 20.821 104.488 2.595 105.421 2.353ZM114.786 19.376L113.863 19.616 109.132 1.39 110.055 1.15ZM118.497 18.413L115.708 19.137 110.978 0.911 113.767 0.187ZM115.951 29.598L114.692 27.677 112.375 28.278 112.219 30.567 111.407 30.778 112.142 22.803 112.242 22.777 116.783 29.382ZM112.436 27.609L114.322 27.119 112.681 24.633ZM161.977 18.493L161.052 18.26 165.649 0 166.574 0.233ZM163.836 18.961L162.911 18.728 167.509 0.468 168.433 0.701ZM167.554 19.897L164.771 19.196 169.368 0.936 172.151 1.637ZM171.273 20.833L168.479 20.13 173.076 1.87 175.87 2.573ZM175.915 22.002L174.981 21.767 179.578 3.507 180.513 3.742ZM165.962 30.001L167.591 23.529 165.581 23.023 165.761 22.309 170.715 23.557 170.536 24.27 168.425 23.739 166.796 30.211ZM215.423 44.247L213.317 42.296 226.117 28.485 228.222 30.437ZM218.934 47.502L218.235 46.854 231.034 33.043 231.734 33.691ZM220.34 48.805L219.641 48.157 232.44 34.346 233.14 34.994ZM221.746 50.108L221.047 49.46 233.847 35.65 234.546 36.298ZM224.559 52.715L222.446 50.756 235.245 36.946 237.358 38.904ZM212.275 55.388V55.388C211.717 54.872 211.449 54.303 211.469 53.681V53.681C211.495 53.064 211.796 52.444 212.374 51.821V51.821L215.67 48.264 216.347 48.891 216.284 48.959C216.21 48.947 216.149 48.967 216.102 49.017V49.017C216.059 49.034 215.988 49.095 215.889 49.201V49.201L212.959 52.363C212.522 52.834 212.282 53.281 212.24 53.703V53.703C212.177 54.106 212.358 54.505 212.784 54.9V54.9C213.189 55.275 213.601 55.426 214.018 55.351V55.351C214.436 55.277 214.87 54.996 215.321 54.51V54.51L218.597 50.976 219.182 51.518 215.906 55.052C215.282 55.726 214.662 56.08 214.047 56.113V56.113C213.428 56.151 212.837 55.91 212.275 55.388ZM247.929 89.379L247.627 88.475 265.484 82.502 265.786 83.407ZM249.145 93.015L248.235 90.293 266.092 84.321 267.003 87.043ZM250.361 96.652L249.448 93.92 267.305 87.947 268.219 90.679ZM250.97 98.47L250.664 97.556 268.521 91.583 268.827 92.497ZM252.488 103.01L252.182 102.096 270.04 96.124 270.346 97.038ZM239.83 97.278L246.856 94.928 247.606 97.169C247.856 97.916 247.848 98.534 247.582 99.024V99.024C247.351 99.531 246.943 99.882 246.36 100.077V100.077C245.79 100.268 245.264 100.24 244.781 99.993V99.993C244.3 99.754 243.938 99.27 243.694 98.543V98.543L243.198 97.059 240.102 98.094ZM243.886 96.829L244.353 98.224C244.522 98.729 244.755 99.055 245.052 99.203V99.203C245.334 99.371 245.668 99.391 246.055 99.261V99.261C246.435 99.134 246.697 98.915 246.841 98.605V98.605C247.002 98.282 247.005 97.887 246.849 97.422V97.422L246.373 95.997Z" fill="#a53aca" data-fill-palette-color="primary"></path><path d="M7.454 133.274C7.454 132.083 8.42 131.117 9.612 131.117 10.804 131.117 11.77 132.083 11.77 133.274 11.77 134.466 10.804 135.432 9.612 135.432 8.42 135.432 7.454 134.466 7.454 133.274ZM268.608 133.274C268.608 132.083 269.575 131.117 270.766 131.117 271.958 131.117 272.924 132.083 272.924 133.274 272.924 134.466 271.958 135.432 270.766 135.432 269.575 135.432 268.608 134.466 268.608 133.274Z" fill="#a53aca" data-fill-palette-color="primary"></path></g></svg></g></svg></g></svg></g><g></g></svg></g><defs></defs></svg><rect width="280" height="280" fill="none" stroke="none" visibility="hidden"></rect></g></svg></g></svg>